<svg aria-hidden="true" style="width:0;height:0;position:absolute;overflow:hidden" xmlns="http://www.w3.org/2000/svg"><defs><symbol id="icon-search" viewBox="0 0 24 24"><path d="m.793 21.168 1.414 1.414 4.385-4.385-1.377-1.451-4.422 4.422zM14.125 1A8.876 8.876 0 0 0 5.25 9.875c0 1.919.617 3.69 1.652 5.143l1.67 1.76a8.813 8.813 0 0 0 5.553 1.973 8.876 8.876 0 0 0 0-17.751zm0 15.75c-3.791 0-6.875-3.084-6.875-6.875S10.334 3 14.125 3 21 6.084 21 9.875s-3.084 6.875-6.875 6.875z"/></symbol><symbol id="icon-calendar" viewBox="0 0 20 20"><path d="M17 3h-1v2h-3V3H7v2H4V3H3c-1.101 0-2 .9-2 2v12c0 1.1.899 2 2 2h14c1.1 0 2-.9 2-2V5c0-1.1-.9-2-2-2zm0 14H3V9h14v8zM6.5 1h-2v3.5h2V1zm9 0h-2v3.5h2V1z"/></symbol><symbol id="icon-star" viewBox="0 0 20 20"><path d="m10 1.3 2.388 6.722H18.8l-5.232 3.948 1.871 6.928L10 14.744l-5.438 4.154 1.87-6.928-5.233-3.948h6.412L10 1.3z"/></symbol><symbol id="icon-stopwatch" viewBox="0 0 20 20"><path d="M7.376 6.745c-.447.275 1.197 4.242 1.598 4.888a1.206 1.206 0 0 0 2.053-1.266c-.397-.648-3.205-3.898-3.651-3.622zm-.335-4.343a8.98 8.98 0 0 1 5.918 0c.329.114.765-.115.572-.611-.141-.36-.277-.712-.332-.855-.131-.339-.6-.619-.804-.665C11.623.097 10.823 0 10 0S8.377.097 7.604.271c-.204.046-.672.326-.803.665l-.332.855c-.193.496.243.726.572.611zm12.057.784a10.132 10.132 0 0 0-1.283-1.285c-.153-.129-.603-.234-.888.051l-1.648 1.647c.402.288.793.605 1.155.966s.677.752.966 1.155l1.647-1.647c.286-.286.181-.735.051-.887zM10 2.9a8.1 8.1 0 1 0-.001 16.201A8.1 8.1 0 0 0 10 2.9zm0 14.201A6.1 6.1 0 1 1 10.001 4.9 6.1 6.1 0 0 1 10 17.1z"/></symbol><symbol id="icon-clapperboard" viewBox="0 0 20 20"><path d="M20 3v14a1 1 0 0 1-1 1H1a1 1 0 0 1-1-1V3a1 1 0 0 1 1-1h1l3 3h2.5l-3-3h3l3 3H13l-3-3h3l3 3h2.5l-3-3H19a1 1 0 0 1 1 1z"/></symbol><symbol id="icon-loader" viewBox="0 0 24 24"><path d="M11 2v4a1 1 0 0 0 2 0V2a1 1 0 0 0-2 0zm0 16v4a1 1 0 0 0 2 0v-4a1 1 0 0 0-2 0zM4.223 5.637l2.83 2.83a.999.999 0 1 0 1.414-1.414l-2.83-2.83a.999.999 0 1 0-1.414 1.414zm11.31 11.31 2.83 2.83a.999.999 0 1 0 1.414-1.414l-2.83-2.83a.999.999 0 1 0-1.414 1.414zM2 13h4a1 1 0 0 0 0-2H2a1 1 0 0 0 0 2zm16 0h4a1 1 0 0 0 0-2h-4a1 1 0 0 0 0 2zM5.637 19.777l2.83-2.83a.999.999 0 1 0-1.414-1.414l-2.83 2.83a.999.999 0 1 0 1.414 1.414zm11.31-11.31 2.83-2.83a.999.999 0 1 0-1.414-1.414l-2.83 2.83a.999.999 0 1 0 1.414 1.414z"/></symbol><symbol id="icon-star" viewBox="0 0 20 20"><path d="m10 1.3 2.388 6.722H18.8l-5.232 3.948 1.871 6.928L10 14.744l-5.438 4.154 1.87-6.928-5.233-3.948h6.412L10 1.3z"/></symbol><symbol id="icon-star-outlined" viewBox="0 0 20 20"><path d="M18.8 8.022h-6.413L10 1.3 7.611 8.022H1.199l5.232 3.947-1.871 6.929L10 14.744l5.438 4.154-1.869-6.929L18.8 8.022zM10 12.783l-3.014 2.5 1.243-3.562-2.851-2.3 3.522.101 1.1-4.04 1.099 4.04 3.521-.101-2.851 2.3 1.243 3.562-3.012-2.5z"/></symbol><symbol id="icon-bookmark" viewBox="0 0 20 20"><path d="M2 2c0-1.1.9-2 2-2h12a2 2 0 0 1 2 2v18l-8-4-8 4V2z"/></symbol><symbol id="icon-bookmark-outline" viewBox="0 0 20 20"><path d="M2 2c0-1.1.9-2 2-2h12a2 2 0 0 1 2 2v18l-8-4-8 4V2zm2 0v15l6-3 6 3V2H4z"/></symbol><symbol id="icon-person_pin_circle" viewBox="0 0 24 24"><path d="M12 14.016q1.031 0 2.203-.633t1.781-1.523q0-.891-1.383-1.477t-2.602-.586-2.602.586-1.383 1.477q1.406 2.156 3.984 2.156zm0-10.032q-.844 0-1.43.586T9.984 6t.586 1.43 1.43.586 1.43-.586.586-1.43-.586-1.43T12 3.984zm0-1.968q2.906 0 4.945 2.039T18.984 9q0 1.453-.727 3.328t-1.758 3.516-2.039 3.07-1.711 2.273l-.75.797q-.281-.328-.75-.867t-1.688-2.156-2.133-3.141-1.664-3.445T5.014 9q0-2.906 2.039-4.945t4.945-2.039z"/></symbol><symbol id="icon-arrow-with-circle-right" viewBox="0 0 20 20"><path d="M10 .4C4.697.4.399 4.698.399 10A9.6 9.6 0 0 0 10 19.601c5.301 0 9.6-4.298 9.6-9.601S15.301.4 10 .4zm-.001 17.2a7.6 7.6 0 1 1 0-15.2 7.6 7.6 0 1 1 0 15.2zM10 8H6v4h4v2.5l4.5-4.5L10 5.5V8z"/></symbol><symbol id="icon-arrow-with-circle-left" viewBox="0 0 20 20"><path d="M10 .4C4.697.4.399 4.698.399 10A9.6 9.6 0 0 0 10 19.601c5.301 0 9.6-4.298 9.6-9.601S15.301.4 10 .4zm-.001 17.2a7.6 7.6 0 1 1 0-15.2 7.6 7.6 0 1 1 0 15.2zM10 5.5 5.5 10l4.5 4.5V12h4V8h-4V5.5z"/></symbol><symbol id="icon-video-camera" viewBox="0 0 32 32"><path d="M12 9a5 5 0 1 1 10.001.001A5 5 0 0 1 12 9zM0 9a5 5 0 1 1 10.001.001A5 5 0 0 1 0 9zm24 10v-3c0-1.1-.9-2-2-2H2c-1.1 0-2 .9-2 2v10c0 1.1.9 2 2 2h20c1.1 0 2-.9 2-2v-3l8 5V14l-8 5zm-4 5H4v-6h16v6z"/></symbol></defs></svg>